# xmcd
#
# Track frame offsets:
#	150
#	19425
#	36075
#	49425
#	63075
#	77400
#	91500
#	105675
#	119775
#	132825
#	145200
#	160650
#	174375
#	188775
#	204975
#	218700
#	232725
#	246225
#	260850
#	280425
#	298950
#	313200
#	327525
#	340800
#
# Disc length: 4769 seconds
#
# Revision: 0
# Processed by: cddbd v1.5.2PL0 Copyright (c) Steve Scherf et al.
# Submitted via: EasyCDDAExtractor 9.0.0.1
#
DISCID=6c129f18
DTITLE=Grupo Límite - Lo mejor de Límite
DYEAR=2004
DGENRE=Grupero
TTITLE0=La otra parte del amor
TTITLE1=Con la misma piedra
TTITLE2=Juguete
TTITLE3=Esta vez
TTITLE4=Te aprovechas
TTITLE5=El príncipe
TTITLE6=Acaríciame
TTITLE7=Hasta mañana
TTITLE8=Sentimientos
TTITLE9=Alcánzame
TTITLE10=Se quebró el amor
TTITLE11=Ya no insistas
TTITLE12=Me duele tanto
TTITLE13=Solo contigo
TTITLE14=Sólo tú
TTITLE15=Vete
TTITLE16=Yo sin tu amor
TTITLE17=Préstame esta noche
TTITLE18=Solamente tú
TTITLE19=Without you
TTITLE20=Dáme valor
TTITLE21=Esto que siento
TTITLE22=Mírame
TTITLE23=Amigo bronco
EXTD=
EXTT0=
EXTT1=
EXTT2=
EXTT3=
EXTT4=
EXTT5=
EXTT6=
EXTT7=
EXTT8=
EXTT9=
EXTT10=
EXTT11=
EXTT12=
EXTT13=
EXTT14=
EXTT15=
EXTT16=
EXTT17=
EXTT18=
EXTT19=
EXTT20=
EXTT21=
EXTT22=
EXTT23=
PLAYORDER=
